<?xml version="1.0" encoding="UTF-8" standalone="no"?>
<!-- Generator: Adobe Illustrator 15.0.2, SVG Export Plug-In . SVG Version: 6.00 Build 0)  -->

<svg
   xmlns:dc="http://purl.org/dc/elements/1.1/"
   xmlns:cc="http://creativecommons.org/ns#"
   xmlns:rdf="http://www.w3.org/1999/02/22-rdf-syntax-ns#"
   xmlns:svg="http://www.w3.org/2000/svg"
   xmlns="http://www.w3.org/2000/svg"
   xmlns:xlink="http://www.w3.org/1999/xlink"
   xmlns:sodipodi="http://sodipodi.sourceforge.net/DTD/sodipodi-0.dtd"
   xmlns:inkscape="http://www.inkscape.org/namespaces/inkscape"
   version="1.1"
   id="Layer_1"
   x="0px"
   y="0px"
   width="996.8px"
   height="409.215px"
   viewBox="0 0 996.8 409.215"
   enable-background="new 0 0 996.8 409.215"
   xml:space="preserve"
   inkscape:version="0.48.2 r9819"
   sodipodi:docname="Maccabi_Health_Care_Services_2011_logo.svg"><metadata
   id="metadata30"><rdf:RDF><cc:Work
       rdf:about=""><dc:format>image/svg+xml</dc:format><dc:type
         rdf:resource="http://purl.org/dc/dcmitype/StillImage" /></cc:Work></rdf:RDF></metadata><defs
   id="defs28">
	<defs
   id="defs13">
		<path
   d="M30.026,123.979c-15.529,0-24.249,4.819-27.917,13.747v29.626c1.311,4.23,5.48,7.561,9.825,7.561h8.212    c10.768,0,12.758,4.096,14.443,13.625l2.156,12.302l2.63,14.819l0.67,5.355c3.962,22.341,16.163,30.59,38.919,30.59h27.067    c4.278,0,7.23-3.093,7.176-7.202c-0.013-0.428-0.061-0.874-0.128-1.297l-4.579-28.285l-2.47-13.98l-5.781-32.649    c-4.894-27.709-18.982-44.211-50.414-44.211H30.026z M154.031,123.979c-21.539,0-29.939,9.261-30.026,25.819    c-0.028,3.833,0.4,8.037,1.211,12.596l0.837,4.81c1.217,4.295,5.467,7.708,9.877,7.708h49.938    c26.444,0,36.599,12.838,40.232,33.493l3.563,20.282c0.91,5.07,1.553,9.824,1.565,14.054c0.08,12.743-5.348,21.126-25.542,21.126    h-53.758c-4.25,0-7.236,3.145-7.128,7.215c0,0.415,0.039,0.856,0.128,1.297l1.365,7.938c4.898,27.697,20.085,36.374,46.51,36.374    h145.155c11.553,0,16.078-4.62,16.091-10.606c0.026-3.854-1.795-8.27-4.801-12.423c-1.107-1.483-21.543-28.444-21.543-28.444    c-0.69-0.883-1.687-1.406-2.678-1.406h-32.441h-0.054c-4.838,0-8.72-1.683-10.928-4.563c-1.246-1.674-1.888-3.655-1.914-5.796    c-0.022-1.7,0.326-3.495,1.064-5.368c0.428-0.991,9.049-22.648,10.982-27.337l0.108-1.35v-0.052l-0.578-1.367    c-3.519-4.632-21.009-27.761-21.712-28.713c-2-2.651-2.745-4.659-2.745-6.506c0.021-1.111,0.309-2.171,0.757-3.27    c1.151-2.941,4.524-4.576,9.365-4.576h36.142c1.032,0,1.687-0.761,1.659-1.7c0-0.199-0.052-0.441-0.119-0.67    c-11.353-28.427-37.905-48.563-77.494-48.563H154.031z M359.931,123.979c-11.571,0-16.139,4.728-16.165,10.749    c-0.026,3.854,1.808,8.245,4.853,12.276c2.946,3.841,20.027,26.507,20.027,26.507c0.627,0.826,1.674,1.401,2.63,1.401h49.402    c4.84,0,8.785,1.583,10.995,4.576c1.272,1.661,1.917,3.642,1.934,5.788c0,1.67-0.358,3.465-1.094,5.312    c-0.377,0.792-10.931,27.216-11,27.32c-0.108,0.351-0.147,0.709-0.135,1.073c0.014,0.614,0.251,1.259,0.671,1.765    c0,0,19.971,26.507,20.603,27.337c2.375,3.162,3.581,6.198,3.552,8.742c-0.014,0.844-0.152,1.635-0.441,2.353    c-1.203,2.95-4.524,4.633-9.417,4.633h-44.73c-0.995,0-1.834,0.523-2.163,1.354c0,0-9.715,24.656-11.238,28.497    c-0.896,2.249-1.372,4.62-1.372,6.946c-0.013,8.314,6.043,16.083,20.862,16.083h14.46h34.172    c46.474,0,72.293-21.913,72.202-66.717c-0.014-7.82-0.826-16.333-2.444-25.534l-1.531-8.668    c-12.765-72.384-59.19-91.792-102.653-91.792H359.931z M673.269,122.92c-28.864,0-50.418,7.847-53.144,39.172    c-0.246,4.014-1.973,5.875-4.014,5.875c-2.375,0-5.139-2.5-6.497-7.081c-7.259-24.335-23.401-36.906-50.622-36.906h-12.631    c-21.476,0-29.863,9.261-29.993,25.819c-0.025,3.833,0.39,8.037,1.198,12.596c0,0,0.315,1.54,0.831,4.81    c0.839,4.71,5.376,8.244,11.93,8.244c11.679,0,14.884,3.616,16.723,14.335l21.026,118.594c1.15,4.416,5.411,7.95,9.936,7.95    h31.693c18.439,0,28.367-3.668,28.293-18.833c-0.013-2.479-0.303-5.26-0.852-8.396l-13.028-74.174    c-0.623-3.478-0.913-6.774-0.926-9.854c-0.053-18.859,10.684-30.158,25.736-30.158h9.08c23.072,0,34.808,10.364,39.163,35.071    l3.374,19.396c0.757,4.273,1.224,8.206,1.25,11.783c0.095,14.045-6.51,22.385-28.172,22.385h-10.936    c-4.277,0-7.241,3.141-7.154,7.215c0,0.441,0.039,0.856,0.121,1.298l0.52,2.984c5.563,31.335,19.819,44.588,51.992,44.588h7.311    c36.832,0,62.941-20.175,62.863-61.83c-0.013-6.375-0.648-13.253-1.946-20.641l-5.364-30.552    c-11.666-65.964-49.821-83.69-90.672-83.69H673.269z"
   id="SVGID_1_" />
	</defs>
	
	
		<radialGradient
   gradientUnits="userSpaceOnUse"
   gradientTransform="matrix(20.7067,0,0,-20.7067,-1157.9652,16965.281)"
   r="13.7129"
   cy="808.6123"
   cx="74.7163"
   id="SVGID_3_">
		<stop
   id="stop20"
   style="stop-color:#00ACED"
   offset="0" />
		<stop
   id="stop22"
   style="stop-color:#004975"
   offset="1" />
	</radialGradient>
	
<radialGradient
   inkscape:collect="always"
   xlink:href="#SVGID_3_"
   id="radialGradient3020"
   cx="440.48303"
   cy="140.62999"
   fx="440.48303"
   fy="140.62999"
   r="388.11559"
   gradientTransform="matrix(-1.1478384e-8,0.73160912,-0.73160911,-3.4571988e-5,492.04902,-100.66795)"
   gradientUnits="userSpaceOnUse" /><radialGradient
   inkscape:collect="always"
   xlink:href="#SVGID_3_"
   id="radialGradient3022"
   gradientUnits="userSpaceOnUse"
   gradientTransform="matrix(20.7067,9.7857669e-4,9.7857668e-4,-20.7067,-1158.7565,16965.208)"
   cx="74.716301"
   cy="808.6123"
   r="13.7129"
   fx="74.716301"
   fy="808.6123" /></defs><sodipodi:namedview
   pagecolor="#ffffff"
   bordercolor="#666666"
   borderopacity="1"
   objecttolerance="10"
   gridtolerance="10"
   guidetolerance="10"
   inkscape:pageopacity="0"
   inkscape:pageshadow="2"
   inkscape:window-width="1280"
   inkscape:window-height="962"
   id="namedview26"
   showgrid="false"
   inkscape:zoom="1.1561379"
   inkscape:cx="499.45453"
   inkscape:cy="204.60723"
   inkscape:window-x="-8"
   inkscape:window-y="-8"
   inkscape:window-maximized="1"
   inkscape:current-layer="Layer_1" />

		
	

<g
   id="g3024"><path
     style="fill-opacity:1;fill:url(#radialGradient3020)"
     inkscape:connector-curvature="0"
     d="m 30.026,123.979 c -15.529,0 -24.249,4.819 -27.917,13.747 v 29.626 c 1.311,4.23 5.48,7.561 9.825,7.561 h 8.212 c 10.768,0 12.758,4.096 14.443,13.625 l 2.156,12.302 2.63,14.819 0.67,5.355 c 3.962,22.341 16.163,30.59 38.919,30.59 h 27.067 c 4.278,0 7.23,-3.093 7.176,-7.202 -0.013,-0.428 -0.061,-0.874 -0.128,-1.297 L 108.5,214.82 106.03,200.84 100.249,168.191 C 95.355,140.482 81.267,123.98 49.835,123.98 H 30.026 z m 124.005,0 c -21.539,0 -29.939,9.261 -30.026,25.819 -0.028,3.833 0.4,8.037 1.211,12.596 l 0.837,4.81 c 1.217,4.295 5.467,7.708 9.877,7.708 h 49.938 c 26.444,0 36.599,12.838 40.232,33.493 l 3.563,20.282 c 0.91,5.07 1.553,9.824 1.565,14.054 0.08,12.743 -5.348,21.126 -25.542,21.126 h -53.758 c -4.25,0 -7.236,3.145 -7.128,7.215 0,0.415 0.039,0.856 0.128,1.297 l 1.365,7.938 c 4.898,27.697 20.085,36.374 46.51,36.374 h 145.155 c 11.553,0 16.078,-4.62 16.091,-10.606 0.026,-3.854 -1.795,-8.27 -4.801,-12.423 -1.107,-1.483 -21.543,-28.444 -21.543,-28.444 -0.69,-0.883 -1.687,-1.406 -2.678,-1.406 h -32.441 -0.054 c -4.838,0 -8.72,-1.683 -10.928,-4.563 -1.246,-1.674 -1.888,-3.655 -1.914,-5.796 -0.022,-1.7 0.326,-3.495 1.064,-5.368 0.428,-0.991 9.049,-22.648 10.982,-27.337 l 0.108,-1.35 v -0.052 l -0.578,-1.367 c -3.519,-4.632 -21.009,-27.761 -21.712,-28.713 -2,-2.651 -2.745,-4.659 -2.745,-6.506 0.021,-1.111 0.309,-2.171 0.757,-3.27 1.151,-2.941 4.524,-4.576 9.365,-4.576 h 36.142 c 1.032,0 1.687,-0.761 1.659,-1.7 0,-0.199 -0.052,-0.441 -0.119,-0.67 -11.353,-28.427 -37.905,-48.563 -77.494,-48.563 h -83.088 z m 205.9,0 c -11.571,0 -16.139,4.728 -16.165,10.749 -0.026,3.854 1.808,8.245 4.853,12.276 2.946,3.841 20.027,26.507 20.027,26.507 0.627,0.826 1.674,1.401 2.63,1.401 h 49.402 c 4.84,0 8.785,1.583 10.995,4.576 1.272,1.661 1.917,3.642 1.934,5.788 0,1.67 -0.358,3.465 -1.094,5.312 -0.377,0.792 -10.931,27.216 -11,27.32 -0.108,0.351 -0.147,0.709 -0.135,1.073 0.014,0.614 0.251,1.259 0.671,1.765 0,0 19.971,26.507 20.603,27.337 2.375,3.162 3.581,6.198 3.552,8.742 -0.014,0.844 -0.152,1.635 -0.441,2.353 -1.203,2.95 -4.524,4.633 -9.417,4.633 h -44.73 c -0.995,0 -1.834,0.523 -2.163,1.354 0,0 -9.715,24.656 -11.238,28.497 -0.896,2.249 -1.372,4.62 -1.372,6.946 -0.013,8.314 6.043,16.083 20.862,16.083 h 14.46 34.172 c 46.474,0 72.293,-21.913 72.202,-66.717 -0.014,-7.82 -0.826,-16.333 -2.444,-25.534 l -1.531,-8.668 C 501.799,143.388 455.374,123.98 411.911,123.98 h -51.98 z m 313.338,-1.059 c -28.864,0 -50.418,7.847 -53.144,39.172 -0.246,4.014 -1.973,5.875 -4.014,5.875 -2.375,0 -5.139,-2.5 -6.497,-7.081 -7.259,-24.335 -23.401,-36.906 -50.622,-36.906 h -12.631 c -21.476,0 -29.863,9.261 -29.993,25.819 -0.025,3.833 0.39,8.037 1.198,12.596 0,0 0.315,1.54 0.831,4.81 0.839,4.71 5.376,8.244 11.93,8.244 11.679,0 14.884,3.616 16.723,14.335 l 21.026,118.594 c 1.15,4.416 5.411,7.95 9.936,7.95 h 31.693 c 18.439,0 28.367,-3.668 28.293,-18.833 -0.013,-2.479 -0.303,-5.26 -0.852,-8.396 l -13.028,-74.174 c -0.623,-3.478 -0.913,-6.774 -0.926,-9.854 -0.053,-18.859 10.684,-30.158 25.736,-30.158 h 9.08 c 23.072,0 34.808,10.364 39.163,35.071 l 3.374,19.396 c 0.757,4.273 1.224,8.206 1.25,11.783 0.095,14.045 -6.51,22.385 -28.172,22.385 h -10.936 c -4.277,0 -7.241,3.141 -7.154,7.215 0,0.441 0.039,0.856 0.121,1.298 l 0.52,2.984 c 5.563,31.335 19.819,44.588 51.992,44.588 h 7.311 c 36.832,0 62.941,-20.175 62.863,-61.83 -0.013,-6.375 -0.648,-13.253 -1.946,-20.641 L 771.03,206.61 c -11.666,-65.964 -49.821,-83.69 -90.672,-83.69 h -7.089 z"
     id="use17" /><path
     id="path3"
     d="M986.945,241.885C962.925,109.602,684.883,2.419,365.948,2.419c-41.96,0-82.546,1.847-121.327,5.381  c48.072-0.59,99.276,2.208,152.523,8.433c318.309,37.185,531.078,163.404,537.865,288.045c1.558,28.609-9.417,54.536-30.694,77.038  C965.119,342.039,996.392,293.892,986.945,241.885"
     fill="#00AEEF" /><path
     id="path5"
     d="M994.917,227.789C971.092,97.261,720.05-30.031,262.807,6.286c33.231-2.543,67.688-3.882,103.149-3.882  c318.936,0,596.981,107.198,620.984,239.481c9.455,52.019-21.827,100.154-82.627,139.43  C965.53,348.415,1006.211,289.674,994.917,227.789"
     fill="#0057A3" /><path
     id="path7"
     d="M218.196,408.492c-3.426,0-6.966-1.284-7.704-5.558l-0.327-1.791l-4.042-22.942  c-1.058-6.082-3.635-8.651-9.116-8.651h-6.158c-4.265,0-5.597,3.426-4.961,6.964l3.013,17.038  c1.592,9.063-1.933,14.404-11.225,14.404h-0.329c-5.206,0-9.583-3.629-10.608-9.399l-0.563-3.196h5.537  c2.684,0,4.304-1.604,3.854-4.27l-1.773-9.905c-0.46-2.682-0.421-7.259,5.02-8.53l0.917-0.212c1.84-0.445,1.661-2.894-0.681-2.894  h-13.273l-0.67-3.841c-0.889-5.113,1.559-8.085,6.566-8.085h24.524c13.995,0,20.654,7.656,22.737,19.396l4.25,24.124l0.301,1.687  C224.228,407.1,221.39,408.492,218.196,408.492 M794.804,383.443l-3.686-21.014c-0.757-4.273-4.17-5.571-7.582-5.571  c-3.197,0-6.048,1.393-5.29,5.649c0,0,3.191,18.193,4.122,23.427c1.124,6.411-4.517,11.272-12.635,11.272h-2.92  c-3.819,0-3.098-3.132-1.727-3.348l1.346-0.187c4.724-0.964,6.333-3.962,5.511-8.543l-3.871-22.7  c-0.749-4.273-4.188-5.571-7.604-5.571c-3.192,0-6.03,1.393-5.277,5.649l4.823,27.415c0.415,2.306-1.216,5.251-4.412,5.251  c-3.815,0-6.047-2.812-6.826-7.379c-0.821-4.533-4.485-25.365-4.485-25.365c-0.739-4.273-4.286-5.571-7.561-5.571  c-3.228,0-6.173,1.393-5.429,5.649c0.657,3.686,3.451,19.586,4.45,25.166c2.565,14.568,17.739,20.494,30.201,20.494h2.916  C782.878,408.168,796.989,398.669,794.804,383.443 M713.384,390.234c-3.412,0-6.855-2.024-7.557-5.986l-0.303-1.782l-1.674-9.396  c-0.394-2.249-1.791-3.521-4.576-3.521h-5.849l-0.67-3.841c-0.926-5.113,0.903-8.085,5.917-8.085h4.576  c7.033,0,11.247,3.188,12.558,10.654l2.495,14.188l0.29,1.704C719.363,388.439,716.603,390.234,713.384,390.234 M681.523,408.492  c-3.426,0-6.852-1.284-7.574-5.558l-0.329-1.791l-3.884-21.888c-1.216-7.042-4.685-9.706-11.074-9.706H638.83l-0.692-3.841  c-0.887-5.113,1.566-8.085,6.579-8.085h14.819c12.479,0,20.603,7.362,22.926,20.481l4.044,23.038l0.299,1.687  C687.57,407.1,684.714,408.492,681.523,408.492 M626.588,408.492c-3.388,0-6.722-1.284-7.471-5.558l-5.255-29.864  c-0.407-2.249-1.809-3.521-4.577-3.521h-5.865l-0.675-3.841c-0.904-5.113,0.908-8.085,5.935-8.085h4.581  c7.569,0,11.312,3.612,12.722,11.701l5.618,31.818l0.299,1.687C632.644,407.1,629.793,408.492,626.588,408.492 M591.742,408.492  c-3.426,0-6.981-1.284-7.717-5.558l-0.303-1.791l-4.054-22.942c-1.06-6.082-3.65-8.651-9.092-8.651h-6.182  c-4.265,0-5.597,3.426-4.974,6.964l3.01,17.038c1.597,9.063-1.934,14.404-11.194,14.404h-0.342c-5.221,0-9.598-3.629-10.623-9.399  l-0.55-3.196h5.563c2.644,0,4.291-1.604,3.815-4.27l-1.734-9.905c-0.489-2.682-0.433-7.259,4.979-8.53l0.947-0.212  c1.825-0.445,1.631-2.894-0.67-2.894H539.32l-0.683-3.841c-0.874-5.113,1.574-8.085,6.579-8.085h24.538  c13.968,0,20.642,7.656,22.71,19.396l4.265,24.124l0.303,1.687C597.785,407.1,594.934,408.492,591.742,408.492 M521.322,390.247  c-3.387,0-6.852-2.037-7.535-5.999l-0.329-1.782l-1.661-9.396c-0.394-2.249-1.79-3.521-4.563-3.521h-5.856l-0.684-3.841  c-0.899-5.113,0.935-8.085,5.926-8.085h4.59c7.051,0,11.225,3.188,12.544,10.654l2.491,14.188l0.308,1.704  C527.312,388.439,524.514,390.247,521.322,390.247 M422.271,407.303l-0.762-4.368c-0.77-4.499,1.873-7.574,6.03-7.574h12.267  c6.605,0,8.154-3.949,7.155-9.599l-1.333-7.561c-1.008-5.758-4.187-8.651-10.372-8.651H416.6l-0.688-3.841  c-0.892-5.113,1.453-8.085,6.471-8.085h13.201c13.665,0,20.914,6.597,22.99,18.336l0.723,4.14c0.931,5.325-0.588,9.399-4.975,11.657  l-1.289,0.619c-1.371,0.652-1.06,2.984,1.229,2.984h3.461c5,0,7.838,2.651,8.742,7.898l0.718,4.044H422.271z M403.619,408.492  c-3.387,0-6.83-1.284-7.591-5.558l-0.32-1.791l-3.85-21.888c-1.233-7.042-4.685-9.706-11.104-9.706h-19.833l-0.675-3.841  c-0.904-5.113,1.579-8.085,6.566-8.085h14.819c12.475,0,20.611,7.362,22.93,20.481l4.062,23.038l0.29,1.687  C409.675,407.1,406.811,408.492,403.619,408.492 M346.016,390.247c-3.413,0-6.869-2.037-7.55-5.999l-0.313-1.782l-1.661-9.396  c-0.394-2.249-1.78-3.521-4.563-3.521h-5.863l-0.677-3.841c-0.904-5.113,0.917-8.085,5.911-8.085h4.604  c7.046,0,11.225,3.188,12.531,10.654l2.522,14.188l0.29,1.704C351.994,388.439,349.229,390.247,346.016,390.247 M309.184,379.697  l-2.355,1.168c-1.466,0.744-2.485,1.695-2.042,4.04l12.101,9.503c3.594,2.756,5.502,7.565,3.426,10.87l-2.516,3.937l-31.39-24.525  c-3.006,0-4.077,1.825-3.716,3.75l2.23,12.704l0.32,1.791c0.75,4.273-2.221,5.558-5.413,5.558c-3.428,0-7.176-1.284-7.912-5.558  l-0.316-1.791l-1.017-5.662c-0.878-5.117,0.234-8.435,4.497-10.883l2.109-1.272c1.553-0.86,2.878-1.311,2.403-3.962l-10.133-7.872  c-4.438-3.439-6.237-8.231-3.715-11.952l2.102-3.2l30.112,23.236h0.655c2.537,0,3.748-1.713,3.415-3.616l-2.042-11.523l-0.262-1.496  c-0.75-4.257,2.236-6.082,5.428-6.082c3.426,0,7.049,1.825,7.758,5.879l0.259,1.483l0.965,5.545  C314.933,374.144,313.507,377.557,309.184,379.697 M253.056,408.492c-3.415,0-6.735-1.284-7.483-5.558l-5.269-29.864  c-0.394-2.249-1.793-3.521-4.563-3.521h-5.863l-0.69-3.841c-0.891-5.113,0.923-8.085,5.937-8.085h4.579  c7.583,0,11.311,3.612,12.736,11.701l5.615,31.818l0.274,1.687C259.111,407.1,256.248,408.492,253.056,408.492"
     fill="#0057A3" /></g>


</svg>